<svg xmlns="http://www.w3.org/2000/svg" version="1.0" width="428.000000pt" height="472.000000pt" viewBox="0 0 428.000000 472.000000" preserveAspectRatio="xMidYMid meet">

<g transform="translate(0.000000,472.000000) scale(0.100000,-0.100000)" fill="#673ab7" stroke="none">
<path d="M2353 4679 c-337 -32 -637 -238 -789 -541 -24 -48 -56 -127 -71 -175 -25 -82 -27 -100 -27 -268 0 -167 2 -187 28 -270 111 -369 395 -628 770 -706 139 -29 321 -23 450 15 225 67 398 185 532 363 376 500 204 1210 -361 1490 -88 44 -177 71 -290 88 -108 16 -119 16 -242 4z m-339 -302 l37 -54 -94 -94 c-77 -77 -101 -109 -135 -179 -62 -126 -77 -193 -76 -340 0 -108 4 -136 28 -207 39 -120 98 -216 186 -303 89 -88 158 -131 277 -173 181 -63 400 -45 580 48 l83 43 45 -55 c25 -30 45 -61 45 -68 0 -16 -63 -61 -140 -100 -280 -141 -626 -121 -887 52 -451 299 -536 924 -180 1333 54 62 158 149 178 150 9 0 33 -24 53 -53z" fill="#673ab7"/>
<path d="M1445 3044 l-99 -66 -26 29 c-14 15 -35 41 -46 57 l-21 30 -104 -67 c-590 -377 -794 -514 -791 -533 5 -28 117 -258 164 -336 25 -42 45 -65 52 -61 6 4 87 58 180 121 92 63 290 188 440 279 149 91 281 172 294 181 l22 14 -41 75 c-23 41 -37 78 -33 82 5 4 34 25 64 47 30 22 72 53 93 68 l38 27 -37 52 c-21 29 -40 55 -44 59 -3 5 -51 -22 -105 -58z" fill="#673ab7"/>
<path d="M2235 2350 c-366 -31 -703 -190 -976 -460 -107 -106 -249 -275 -249 -297 0 -6 42 -43 92 -81 419 -313 921 -476 1413 -459 367 13 727 100 1013 246 105 54 281 164 352 220 l25 20 -60 87 c-233 340 -566 578 -943 673 -181 46 -468 68 -667 51z" fill="#673ab7"/>
<path d="M1818 710 c-84 -25 -128 -81 -128 -161 0 -89 45 -141 150 -173 95 -29 120 -43 120 -70 0 -64 -110 -75 -162 -17 l-27 30 -55 -31 c-53 -31 -54 -32 -41 -57 64 -123 282 -148 377 -43 87 96 41 226 -98 277 -119 43 -134 53 -134 80 0 50 79 57 125 11 l23 -24 51 29 c28 16 51 35 51 43 0 7 -20 32 -44 54 -60 55 -135 74 -208 52z" fill="#673ab7"/>
<path d="M300 505 c0 -248 -5 -265 -81 -265 -22 0 -47 8 -63 21 l-26 21 -45 -27 c-25 -14 -45 -32 -45 -39 0 -22 66 -74 107 -85 86 -24 161 -6 219 53 59 58 65 90 62 323 l-3 198 -62 3 -63 3 0 -206z" fill="#673ab7"/>
<path d="M694 690 c-68 -27 -129 -81 -162 -144 -35 -67 -38 -177 -6 -247 64 -138 217 -208 359 -164 66 21 145 87 178 149 32 60 32 203 0 263 -71 132 -235 196 -369 143z m202 -145 c46 -35 67 -85 62 -146 -16 -162 -236 -200 -308 -53 -26 53 -25 91 3 144 47 90 163 116 243 55z" fill="#673ab7"/>
<path d="M2180 420 l0 -290 65 0 65 0 0 68 c0 60 3 72 29 102 19 23 33 32 39 25 5 -5 42 -52 81 -102 l73 -93 80 0 c63 0 78 3 71 12 -69 90 -223 299 -223 304 0 4 42 59 93 123 51 64 96 122 101 129 5 9 -11 12 -73 12 l-80 0 -86 -105 c-48 -58 -91 -105 -96 -105 -5 0 -9 47 -9 105 l0 105 -65 0 -65 0 0 -290z" fill="#673ab7"/>
<path d="M2750 420 l0 -290 65 0 65 0 0 290 0 290 -65 0 -65 0 0 -290z" fill="#673ab7"/>
<path d="M3000 420 l0 -290 178 2 177 3 3 57 3 57 -113 3 -113 3 -5 225 -5 225 -62 3 -63 3 0 -291z" fill="#673ab7"/>
<path d="M3430 420 l0 -290 180 0 180 0 0 60 0 59 -112 3 -113 3 -3 228 -2 227 -65 0 -65 0 0 -290z" fill="#673ab7"/>
<path d="M1170 688 c0 -7 -3 -115 -7 -239 -3 -124 -3 -247 1 -272 l7 -47 145 0 c189 0 235 17 275 105 25 55 24 102 -6 162 -21 41 -24 55 -15 77 26 69 0 158 -58 201 -24 18 -46 20 -184 23 -126 3 -158 1 -158 -10z m279 -122 c7 -8 11 -27 9 -43 -3 -28 -4 -28 -80 -31 l-78 -3 0 46 0 45 69 0 c47 0 72 -4 80 -14z m19 -208 c17 -17 15 -74 -4 -92 -11 -12 -36 -16 -90 -16 l-74 0 0 60 0 60 78 0 c47 0 83 -5 90 -12z" fill="#673ab7"/>
<path d="M3850 640 l0 -60 99 0 c55 0 102 -4 105 -8 3 -4 -42 -82 -99 -173 -98 -154 -105 -167 -105 -216 l0 -53 190 0 190 0 0 60 0 60 -99 0 c-55 0 -102 4 -106 9 -3 6 42 86 100 179 94 151 105 173 105 215 l0 47 -190 0 -190 0 0 -60z" fill="#673ab7"/>
</g>
</svg>