<svg xmlns="http://www.w3.org/2000/svg" version="1.0" width="357.000000pt" height="368.000000pt" viewBox="0 0 357.000000 368.000000" preserveAspectRatio="xMidYMid meet">

<g transform="translate(0.000000,368.000000) scale(0.100000,-0.100000)" fill="#673ab7" stroke="none">
<path d="M1960 3633 c-330 -55 -610 -266 -751 -567 -67 -143 -84 -227 -84 -411 0 -188 18 -270 90 -424 143 -301 409 -500 744 -556 205 -35 395 -6 586 89 317 157 512 436 556 793 35 291 -82 599 -309 814 -142 134 -304 219 -490 255 -68 13 -280 17 -342 7z m-290 -288 c22 -30 40 -58 40 -62 0 -4 -31 -36 -69 -70 -205 -185 -285 -464 -210 -733 110 -399 535 -622 931 -490 51 17 114 44 141 61 26 16 51 29 55 29 14 -1 93 -114 90 -129 -4 -24 -122 -97 -208 -130 -237 -92 -500 -80 -725 32 -203 100 -371 293 -446 510 -88 255 -51 562 92 775 54 79 136 168 200 216 34 25 63 46 65 46 2 0 22 -25 44 -55z" fill="#673ab7"/>
<path d="M1100 2000 c-47 -32 -89 -59 -95 -59 -5 -1 -29 24 -53 54 l-42 55 -38 -24 c-43 -27 -342 -220 -644 -416 -120 -78 -208 -141 -208 -150 0 -38 173 -378 201 -396 6 -3 119 66 252 154 133 87 344 221 470 296 l227 138 -31 56 c-18 32 -36 61 -41 67 -18 20 -4 36 93 105 68 49 97 75 91 83 -51 69 -76 97 -85 96 -7 0 -50 -27 -97 -59z" fill="#673ab7"/>
<path d="M1960 1313 c-447 -20 -849 -225 -1161 -593 -51 -61 -102 -124 -112 -139 l-18 -29 48 -42 c68 -60 250 -179 373 -244 210 -110 469 -193 725 -232 317 -49 738 -6 1100 112 191 63 463 207 603 321 l42 35 -57 83 c-281 407 -676 652 -1142 709 -126 16 -299 24 -401 19z" fill="#673ab7"/>
</g>
</svg>